<svg width="42" height="44" viewBox="0 0 42 44" fill="none" xmlns="http://www.w3.org/2000/svg">
<path d="M2.5 41.5H12M12 41.5H27H20V34C21.6 36 24 36.5 25 36.5V29C30.8 40.6 38.0833 43.5 41 43.5C39.4 37.5 27.3333 21.6667 21.5 14.5H14C16 22 30.5 31.5 33.5 32.5C35.9 33.3 39.5 37.1667 41 39C41.4 37.8 36.8333 31.8333 34.5 29C34.5 25 23.5 13.3333 18 8V1C16.1667 0.833338 11.3 0.600005 6.50001 1C1.70001 1.4 1.16668 3.50001 1.50001 4.50001C5.10002 2.50001 7.33334 3.33334 8 4C9 4 10.5 4 11 3.5C11.5 3 11.5 3 12 3C12.5 3 13 3.5 13 4C13 4.4 12 4.5 11.5 4.50001H9.5V15.5C11.9 16.3 13.5 18.8333 14 20L15 32.5L19 35C19.8 30.6 16 24.1667 14 21.5V34L12 41.5Z" stroke="black"/>
</svg>
