<svg width="625" height="233" viewBox="0 0 625 233" fill="none" xmlns="http://www.w3.org/2000/svg">
<path fill-rule="evenodd" clip-rule="evenodd" d="M165.553 8.2236C162.44 1.99718 158.195 1.55605 156.632 1.98238L156.596 1.99205L144.632 3.42769L171.864 104.927C176.188 104.236 181.823 103.582 189.76 103.048L147.525 5.16073L147.515 5.12127C147.45 4.85999 147.454 4.54606 147.594 4.24167C147.736 3.93168 147.999 3.6732 148.376 3.49699C149.102 3.15792 150.281 3.10581 152.108 3.51191C152.334 3.56207 152.534 3.7126 152.688 3.84913C152.859 3.99986 153.045 4.20051 153.245 4.43965C153.645 4.91924 154.134 5.59604 154.701 6.44447C155.836 8.14396 157.311 10.574 159.057 13.5923C162.55 19.6312 167.145 28.0547 172.309 37.7677C182.59 57.104 195.137 81.5682 205.756 102.546C221.349 101.452 236.394 100.433 242.716 100.108C242.581 100.063 242.452 100.017 242.33 99.9703L242.271 99.9502C242.227 99.9351 242.162 99.9126 242.077 99.8831C241.906 99.824 241.656 99.7368 241.336 99.6238C240.697 99.3978 239.778 99.0689 238.663 98.6565C236.431 97.8319 233.408 96.6728 230.243 95.3356C227.079 93.9991 223.765 92.4812 220.955 90.9383C218.165 89.4068 215.802 87.814 214.608 86.3109L214.593 86.2914L214.579 86.2704C207.079 74.603 195.628 56.7019 185.652 40.9171C175.688 25.1504 167.167 11.4527 165.553 8.2236ZM246.834 101H245.5C242.886 101 225.061 102.195 206.246 103.514C210.268 111.463 214.002 118.887 217.214 125.31C228.015 121.678 239.919 118.506 251.435 117.004C279.062 113.401 326.317 111.167 346.483 110.5L346.817 110.489L364.28 148.907C366.976 148.888 369.722 148.918 372.515 149C423.295 150.494 459.035 165.731 473.385 171.849C474.436 172.298 475.373 172.697 476.192 173.038C482.181 175.534 493.745 179.98 504.957 183.7C510.564 185.561 516.076 187.238 520.755 188.399C524.983 189.448 528.476 190.062 530.741 190.035L521.771 170.206C521.34 170.359 520.916 170.452 520.562 170.496L520.531 170.5H512.188C511.635 170.932 510.986 170.89 510.472 170.709C509.917 170.514 509.431 170.138 509.146 169.854L509.01 169.717L509.001 169.524C508.667 162.69 508 146.513 508 136.5C508 131.442 509.01 128.285 510.342 126.399C511.658 124.534 513.292 123.919 514.491 123.998L523.412 123.007C524.473 122.746 525.315 122.776 525.932 123.061C528.074 120.837 531.601 118.488 535.658 116.228C538.943 114.397 542.605 112.609 546.218 110.978C544.153 111.109 542.03 110.99 539.943 110.5L354.263 111.501L346.555 101.98C323.785 102.41 302.518 102.712 285.124 102.634C267.711 102.557 254.142 102.099 246.834 101ZM347.025 100.971L346.239 100H246.909C245.032 99.7149 243.616 99.3913 242.679 99.033L242.67 99.0297L242.661 99.0267L242.654 99.0476C242.661 99.0267 242.661 99.0267 242.661 99.0267L242.596 99.0045C242.553 98.9896 242.489 98.9674 242.404 98.9382C242.236 98.8798 241.987 98.7932 241.669 98.6809C241.034 98.4563 240.12 98.129 239.009 97.7185C236.787 96.8973 233.779 95.7439 230.632 94.4144C227.483 93.0842 224.204 91.5813 221.436 90.0617C218.661 88.538 216.469 87.0337 215.407 85.7082C207.907 74.0417 196.466 56.1551 186.498 40.3829C176.512 24.5829 168.033 10.9473 166.447 7.77639C163.179 1.24089 158.526 0.45293 156.405 1.00778L143.368 2.5723L170.872 105.089C167.362 105.681 164.751 106.293 162.432 106.871C161.995 106.98 161.57 107.087 161.151 107.193C159.229 107.677 157.452 108.125 155.408 108.509C153.699 108.829 152.44 109.609 151.549 110.678C150.664 111.739 150.166 113.056 149.92 114.424C149.479 116.879 149.836 119.585 150.348 121.532L110.993 123.5C92.5454 123.101 75.5732 126.341 69.3696 128.017L69.5057 129L157.825 128.002C177.194 143.673 212.023 158.216 240.79 168.18C179.18 170.371 108.584 172.603 61.9865 174C55.8459 174.166 46.5932 173.717 38.792 171.839C34.8889 170.899 31.3853 169.61 28.8193 167.888C26.258 166.169 24.6839 164.057 24.4987 161.464L24.4919 161.368L8.44996 128.282L8.44723 128.276C8.19965 127.781 7.39771 127 6.00001 127C4.84221 127 2.24562 126.673 1.07072 126.505L0.399506 126.409L0.50625 127.079C1.42443 132.838 3.07704 141.728 5.05225 149.683C6.03962 153.66 7.11021 157.413 8.21324 160.43C8.76469 161.937 9.32748 163.27 9.89618 164.358C10.4607 165.437 11.0489 166.311 11.6637 166.87C12.3509 167.495 13.0217 168.143 13.7026 168.801C15.6968 170.729 17.7778 172.74 20.6126 174.488C24.4419 176.85 29.6453 178.743 37.9547 179.498C51.1161 180.694 99.3641 181.327 122.16 181.497C123.303 184.116 127.525 188.391 136.522 188C145.643 187.603 151.981 183.622 154.208 181.495L197.791 180.505C199.932 182.667 206.412 186.18 217.055 184.997C227.664 183.818 234.082 180.62 236.175 179H253.836C256.025 180.578 261.751 183.298 268.558 182.497C273.11 181.961 277.17 180.952 279.977 180.088C281.462 180.452 282.775 180.753 283.897 180.989C286.98 181.638 291.445 182.255 296.786 182.832C293.036 186.53 289.911 192.44 289.501 201.477C289.093 210.433 292.492 216.656 296.922 220.779C301.335 224.886 306.755 226.897 310.42 227.493L310.434 227.496L319.939 228.496L319.948 228.497L352.519 232.506L352.598 232.49C354.365 232.137 356.317 231.561 358.32 230.736C361.214 229.828 364.036 228.271 366.538 225.823C373.125 220.344 378.003 211.362 375.394 197.806C375.146 194.508 374.536 191.885 373.97 190.329L373.943 190.256L373.896 190.195C373.596 189.805 373.216 189.339 372.775 188.83C372.606 188.388 372.43 187.943 372.246 187.494L527.47 191.499C527.473 191.499 527.476 191.499 527.479 191.5C538.691 192.168 568.468 191.698 598.118 184.486L598.128 184.483C609.869 181.372 617.11 177.223 620.998 172.476C624.912 167.696 625.379 162.37 623.715 157.075C622.058 151.807 618.294 146.56 613.73 141.831C609.172 137.108 603.784 132.869 598.811 129.606L590 121.313V121.3L589.862 121.155C581.379 112.268 569.705 106.734 558.593 103.421C548.122 100.298 538.109 99.1356 531.65 99.0114C534.637 95.8483 538.838 91.3403 542.621 87.1605C544.685 84.8797 546.626 82.6945 548.177 80.8778C549.719 79.0718 550.901 77.602 551.424 76.765C553.564 73.3409 552.313 69.6575 551.424 68.235L551.415 68.2209L551.406 68.2075C547.739 63.1245 542.165 55.3752 537.357 48.6468C532.538 41.9028 528.515 36.2202 527.929 35.2428C527.164 33.9686 526.493 33.1446 525.652 32.584C524.815 32.0258 523.856 31.7614 522.598 31.5097C521.49 31.288 520.688 31.5028 520.163 31.9804C519.659 32.4394 519.5 33.0635 519.5 33.5V33.5811L519.526 33.6581C520.695 37.1655 522.698 42.8243 524.91 48.4091C527.118 53.9828 529.549 59.5219 531.576 62.765C535.384 68.8577 532.255 74.1768 530.191 76.105L495.354 98.9978C464.194 98.5465 421.362 99.4405 379.733 100.309C368.665 100.54 357.681 100.77 347.025 100.971ZM347.822 101.956L354.737 110.499L540.057 109.5L540.116 109.514C543.221 110.253 546.44 110.129 549.439 109.557C553.645 107.744 557.609 106.197 560.629 105.102C559.854 104.85 559.079 104.609 558.307 104.379C547.289 101.094 536.787 100 530.5 100H529.338L530.137 99.1561C533.135 95.9913 537.758 91.0442 541.879 86.4895C543.94 84.2119 545.874 82.0347 547.417 80.2284C548.968 78.4115 550.099 76.998 550.576 76.235C552.429 73.2699 551.361 70.0327 550.585 68.7786C546.917 63.6947 541.348 55.952 536.543 49.2282C531.746 42.5139 527.685 36.7798 527.071 35.7572C526.336 34.5314 525.757 33.8554 525.098 33.416C524.435 32.9742 523.644 32.7386 522.402 32.4903C521.51 32.312 521.063 32.5139 520.837 32.7196C520.616 32.9212 520.52 33.2048 520.503 33.4273C521.671 36.9261 523.653 42.5209 525.84 48.0409C528.049 53.6172 530.451 59.0781 532.424 62.235C536.598 68.913 533.109 74.7721 530.839 76.8674L530.809 76.8953L495.646 100.002L495.493 99.9999C464.341 99.5437 421.461 100.439 379.767 101.309C368.964 101.534 358.241 101.758 347.822 101.956ZM549.736 110.518C554.738 109.544 559.075 107.384 561.277 105.916L560.914 105.195C571.047 108.523 581.334 113.745 588.981 121.682C588.877 122.259 588.297 123.543 586.276 124.553C586.182 124.6 585.977 124.669 585.633 124.751C585.3 124.831 584.871 124.915 584.353 125.004C583.316 125.182 581.942 125.373 580.31 125.572C577.046 125.972 572.767 126.402 568.117 126.827C558.817 127.677 548.046 128.501 540.965 129.001L540.845 129.01L540.743 129.071C540.441 129.252 540.113 129.605 539.777 130.104C539.434 130.615 539.058 131.318 538.675 132.247C537.91 134.106 537.11 136.898 536.506 140.926L536.419 141.5H550.903L553.408 129.975L560.701 129.52L564.742 137.601C562.916 137.863 560.391 138.271 558.026 138.747C556.687 139.017 555.393 139.311 554.304 139.614C553.23 139.912 552.306 140.233 551.743 140.571L552.095 141.491L570.742 137.865L566.267 128.916L582.772 127.029L588.15 134.2C584.635 135.067 577.397 136.5 571.5 136.5H571V138.531L571.53 138.499C574.295 138.332 578.689 137.905 582.899 137.168C585.004 136.799 587.071 136.351 588.869 135.817C590.658 135.285 592.22 134.656 593.287 133.91L593.723 133.604L587.632 125.99L590.065 122.747L598.189 130.394L598.226 130.418C603.159 133.652 608.502 137.854 613.011 142.525C617.525 147.203 621.171 152.318 622.761 157.375C624.342 162.405 623.89 167.367 620.224 171.843C616.532 176.351 609.533 180.426 597.877 183.515C571.768 189.866 545.551 190.966 532.129 190.678L522.686 169.803C523.405 169.52 524.257 168.996 524.867 168.163C525.539 167.244 525.887 165.988 525.485 164.379C524.999 162.435 524.125 155.106 524 146.93C523.938 142.85 524.063 138.576 524.512 134.674C524.963 130.765 525.736 127.266 526.951 124.715L527.023 124.565L526.99 124.402C526.942 124.159 526.848 123.92 526.702 123.704C528.737 121.61 532.13 119.338 536.145 117.101C540.343 114.762 545.175 112.486 549.736 110.518ZM525.209 123.872C524.858 123.798 524.348 123.803 523.621 123.985L523.589 123.993L514.507 125.002L514.459 124.998C513.662 124.932 512.323 125.326 511.158 126.976C509.99 128.631 509 131.558 509 136.5C509 146.389 509.653 162.328 509.99 169.273C510.206 169.46 510.502 169.66 510.803 169.766C511.162 169.892 511.432 169.861 511.646 169.646L511.793 169.5H520.468C520.731 169.465 521.041 169.397 521.357 169.291L521.298 169.16L521.879 169.015C521.96 168.995 522.048 168.969 522.141 168.938C522.531 168.705 522.836 168.416 523.004 168.07C523.172 167.726 523.231 167.273 523.026 166.658C522.885 166.235 522.723 165.396 522.557 164.278C522.389 163.144 522.21 161.684 522.042 159.995C521.704 156.616 521.407 152.306 521.313 147.823C521.219 143.342 521.328 138.676 521.808 134.59C522.286 130.525 523.139 126.956 524.58 124.728C524.764 124.444 524.975 124.158 525.209 123.872ZM524.156 167.434C524.161 167.093 524.103 166.729 523.974 166.342C523.865 166.015 523.714 165.26 523.546 164.131C523.381 163.016 523.204 161.574 523.037 159.896C522.702 156.54 522.406 152.256 522.312 147.802C522.219 143.346 522.328 138.73 522.801 134.707C523.277 130.663 524.112 127.294 525.42 125.272C525.56 125.055 525.719 124.835 525.898 124.61C524.702 127.271 523.956 130.767 523.519 134.56C523.063 138.518 522.937 142.838 523 146.945C523.125 155.144 524.001 162.565 524.515 164.621C524.824 165.86 524.59 166.77 524.156 167.434ZM525.403 190.446L372.81 186.508C372.108 185.159 370.573 182.565 368.837 180.655C369.646 180.586 370.384 180.535 371.028 180.499L371.039 180.498C374.233 180.246 378.894 179.465 382.473 177.922C384.258 177.152 385.83 176.17 386.798 174.92C387.773 173.663 388.12 172.152 387.503 170.42C387.555 168.481 386.502 165.896 383.36 164.103C380.178 162.288 374.884 161.297 366.429 162.505C363.214 162.964 353.419 163.571 338.984 164.271C325.23 164.938 307.293 165.689 286.891 166.477C308.026 158.773 343.828 152.646 364.065 149.996L364.735 149.908L364.733 149.904C367.274 149.892 369.858 149.923 372.485 150C423.074 151.488 458.668 166.662 473 172.772C474.051 173.221 474.988 173.62 475.808 173.962C481.819 176.466 493.405 180.92 504.643 184.65C510.261 186.514 515.8 188.2 520.514 189.37C522.261 189.803 523.905 190.169 525.403 190.446ZM363.186 148.917L346.183 111.511C325.834 112.191 278.987 114.419 251.565 117.996C240.18 119.481 228.393 122.612 217.666 126.214L217.723 126.329L217.126 126.484C216.755 126.58 216.363 126.684 215.953 126.796C201.506 131.764 189.197 137.476 182.736 140.941L182.178 140.118C185.873 137.006 192.067 134.033 198.391 131.548C204.724 129.059 211.246 127.037 215.659 125.839C215.802 125.79 215.945 125.741 216.088 125.692C216.145 125.673 216.201 125.654 216.258 125.634C213.009 119.139 209.232 111.628 205.164 103.59C192.935 104.449 180.423 105.35 171.536 105.999L171.472 106.003C167.775 106.612 165.073 107.244 162.674 107.841C162.243 107.949 161.821 108.055 161.404 108.16C159.481 108.645 157.669 109.102 155.592 109.491C154.101 109.771 153.052 110.437 152.317 111.319C151.575 112.209 151.13 113.348 150.905 114.601C150.453 117.118 150.909 119.983 151.478 121.854L151.665 122.467L111.007 124.5L110.989 124.5C95.9968 124.174 81.9796 126.269 74.0119 127.949L158.175 126.998L158.315 127.112C178.056 143.152 214.288 158.08 243.576 168.08C257.598 167.58 271.123 167.082 283.759 166.597C283.795 166.583 283.832 166.568 283.868 166.554L283.931 166.529C300.237 158.276 327.381 149.337 363.186 148.917ZM293.905 163.087C308.936 156.933 329.913 151.294 355.906 150.123C337.729 152.797 312.444 157.404 293.905 163.087ZM281.112 167.699C270.053 168.121 258.346 168.552 246.248 168.986C260.18 173.669 272.299 177.167 279.945 179.051C281.216 178.653 282.196 178.293 282.808 178.038L282.895 178.002L307.49 177.5L307.545 178.498C305.356 178.697 302.18 179.714 299.159 182.075C309.03 183.079 321.489 183.964 333.775 184.689C340.714 175.945 348.441 173.975 354.87 174.593C361.105 175.194 366.077 178.223 367.896 179.734C369.049 179.627 370.091 179.55 370.967 179.501C374.107 179.253 378.642 178.484 382.077 177.003C383.8 176.261 385.191 175.362 386.008 174.308C386.8 173.285 387.068 172.104 386.532 170.676L386.496 170.579L386.501 170.476C386.574 168.926 385.758 166.622 382.865 164.972C379.955 163.312 374.916 162.303 366.571 163.495C363.297 163.963 353.443 164.571 339.033 165.27C324.632 165.968 305.649 166.758 284.057 167.587C278.106 170.623 273.658 173.547 270.818 175.886L270.078 175.232C271.064 173.676 272.812 172.19 275.113 170.77C276.81 169.723 278.831 168.698 281.112 167.699ZM366.437 179.881C364.293 178.372 359.992 176.091 354.774 175.589C348.81 175.015 341.606 176.758 335.003 184.761C338.662 184.973 342.297 185.172 345.834 185.355C348.568 182.556 351.214 181.149 353.673 180.574C356.132 179.999 358.362 180.266 360.247 180.745C362.388 180.373 364.521 180.088 366.437 179.881ZM357.46 181.284C356.342 181.199 355.151 181.256 353.901 181.548C351.97 181.999 349.866 183.02 347.651 184.999C347.838 184.855 348.027 184.717 348.219 184.587C348.363 184.489 348.513 184.392 348.668 184.298L348.636 184.261L348.852 184.189C350.106 183.459 351.698 182.836 353.449 182.304C354.712 181.921 356.069 181.582 357.46 181.284ZM355.77 182.702C357.196 182.345 358.699 182.034 360.206 181.768C361.181 182.027 362.049 182.339 362.833 182.62C363.185 182.747 363.521 182.867 363.842 182.974C365.509 183.53 367.36 184.886 369.029 186.407C368.741 186.396 368.449 186.385 368.154 186.373C365.896 184.375 361.705 182.284 355.77 182.702ZM349.327 185.07C349.135 185.182 348.953 185.297 348.781 185.413C348.74 185.441 348.699 185.47 348.658 185.499C349.013 185.517 349.367 185.534 349.719 185.552C349.588 185.386 349.457 185.225 349.327 185.07ZM350.506 186.592C349.509 186.543 348.502 186.493 347.484 186.441C345.518 188.219 343.795 190.779 342.423 193.333C341.161 195.681 340.211 197.994 339.651 199.627C340.34 199.826 341.154 200.242 341.858 200.963C342.789 201.917 343.5 203.379 343.5 205.5C343.5 207.668 342.579 208.933 341.356 209.569C340.479 210.025 339.49 210.136 338.669 210.087C341.401 220.224 346.805 224.121 349.336 224.933C355.767 217.666 357.449 210.016 356.832 203.215C356.217 196.435 353.314 190.479 350.506 186.592ZM344.946 186.31C341.443 186.127 337.851 185.929 334.239 185.718C333.626 186.512 333.018 187.364 332.417 188.275C326.716 196.925 326.84 205.425 329.31 212.561C331.775 219.682 336.578 225.439 340.267 228.571C344.505 230.408 351.45 231.827 357.979 229.795C360.633 228.697 363.376 227.147 365.867 225.081C368.319 222.673 370.462 219.349 372.028 214.836L372.031 214.826C374.35 208.564 374.741 202.561 374.401 197.938C373.883 195.269 373.067 192.41 371.904 189.352C371.384 188.758 370.78 188.106 370.121 187.449C369.81 187.438 369.493 187.426 369.173 187.413C369.254 187.51 369.329 187.606 369.4 187.7L369.405 187.707C371.692 190.874 374.711 200.657 369.47 215.17C366.821 222.506 362.415 225.965 357.938 227.255C353.494 228.536 349.047 227.66 346.3 226.458L346.241 226.432L346.191 226.393C343.377 224.176 339.689 219.926 337.716 214.342C335.736 208.738 335.487 201.798 339.56 194.262C341.373 190.909 343.176 188.309 344.946 186.31ZM367.749 187.358C363.088 187.175 357.638 186.938 351.773 186.654C354.512 190.65 357.227 196.495 357.828 203.124C358.475 210.256 356.674 218.277 349.872 225.834L349.67 226.058L349.379 225.985C346.528 225.272 340.533 221.077 337.647 210.136C337.878 211.488 338.226 212.782 338.659 214.008C340.549 219.357 344.078 223.439 346.759 225.567C349.349 226.685 353.521 227.488 357.662 226.295C361.801 225.101 365.979 221.894 368.53 214.83C373.686 200.55 370.644 191.135 368.598 188.297C368.38 188.007 368.097 187.688 367.749 187.358ZM366.449 186.305C361.883 186.122 356.637 185.891 351.031 185.616C350.805 185.315 350.581 185.026 350.359 184.75C358.026 182.405 363.454 184.222 366.449 186.305ZM337.469 208.884C336.986 204.626 337.685 199.835 340.44 194.738C340.956 193.783 341.471 192.892 341.982 192.061C341.831 192.327 341.685 192.594 341.542 192.859C340.107 195.529 339.067 198.155 338.524 199.847L338.34 200.421L338.938 200.496C339.501 200.566 340.394 200.894 341.142 201.662C341.878 202.416 342.5 203.621 342.5 205.5C342.5 207.332 341.754 208.234 340.894 208.681C339.986 209.154 338.861 209.162 338.098 209.01L337.469 208.884ZM370.547 186.464C368.663 184.627 366.329 182.749 364.158 182.026C363.874 181.931 363.56 181.818 363.22 181.696C362.963 181.604 362.692 181.507 362.408 181.408C364.224 181.135 365.987 180.925 367.561 180.771C367.592 180.8 367.62 180.828 367.646 180.854C369.293 182.5 370.841 184.985 371.675 186.506L371.518 186.5C371.2 186.489 370.876 186.477 370.547 186.464ZM375.033 207.158C374.644 209.719 373.989 212.419 372.971 215.169C372.626 216.162 372.254 217.1 371.856 217.988C373.564 214.964 374.732 211.377 375.033 207.158ZM341.568 230.151C340.938 229.93 340.347 229.697 339.8 229.458L339.733 229.429L339.677 229.382C335.873 226.17 330.913 220.248 328.365 212.889C325.81 205.508 325.684 196.675 331.583 187.725C332.063 186.996 332.548 186.304 333.038 185.647C320.566 184.905 307.955 183.999 298.095 182.971C294.282 186.423 290.922 192.219 290.499 201.523C290.107 210.167 293.374 216.111 297.603 220.046C301.843 223.993 307.064 225.931 310.566 226.504L320.061 227.504L341.568 230.151ZM297.762 181.931C299.552 180.381 301.434 179.299 303.191 178.588L283.104 178.998C282.756 179.141 282.314 179.309 281.788 179.494C282.633 179.691 283.406 179.864 284.103 180.011C287.3 180.684 292.042 181.327 297.762 181.931ZM278.055 179.608C269.853 177.516 257.449 173.869 243.428 169.086C181.209 171.308 109.271 173.583 62.015 175L62.0135 175C55.8208 175.167 46.4735 174.717 38.558 172.811C34.6028 171.859 30.9689 170.535 28.262 168.718C25.5797 166.918 23.7559 164.594 23.5088 161.633L7.5528 128.724C7.55243 128.723 7.55206 128.722 7.55168 128.721C7.46306 128.547 6.99803 128 6.00001 128C4.95962 128 2.91759 127.762 1.60097 127.587C2.53426 133.332 4.13085 141.822 6.02278 149.442C7.00624 153.403 8.06691 157.118 9.15241 160.086C9.69523 161.57 10.241 162.859 10.7824 163.894C11.3279 164.938 11.8512 165.689 12.3364 166.13C13.0655 166.793 13.761 167.465 14.4562 168.137C16.4307 170.045 18.4029 171.951 21.1375 173.637C24.8081 175.9 29.8547 177.757 38.0453 178.502C51.2188 179.7 99.8246 180.333 122.504 180.5L122.853 180.503L122.971 180.832C123.72 182.928 127.463 187.392 136.478 187C145.55 186.606 151.733 182.56 153.646 180.646L153.788 180.505L198.215 179.495L198.369 179.662C200.072 181.52 206.267 185.189 216.945 184.003C227.684 182.81 233.948 179.533 235.683 178.113L235.822 178H254.167L254.3 178.1C256.221 179.541 261.796 182.285 268.442 181.503C272.105 181.072 275.448 180.329 278.055 179.608ZM191.081 103.585C195.51 103.269 200.109 102.943 204.674 102.622C194.096 81.7306 181.642 57.4495 171.426 38.2371C166.263 28.527 161.675 20.1161 158.191 14.093C156.448 11.0802 154.986 8.67229 153.869 6.99991C153.31 6.16241 152.844 5.5198 152.477 5.08062C152.293 4.86037 152.143 4.7018 152.025 4.59772C151.925 4.50878 151.878 4.48683 151.878 4.48502C150.114 4.09479 149.214 4.20925 148.799 4.40301C148.605 4.49346 148.533 4.59332 148.503 4.65833C148.475 4.71876 148.469 4.7844 148.479 4.84724L191.081 103.585ZM586.83 125.393C586.795 125.411 586.76 125.429 586.724 125.447C586.518 125.55 586.216 125.64 585.865 125.724C585.504 125.81 585.051 125.899 584.521 125.99C584.175 126.049 583.793 126.11 583.379 126.171L589.642 134.522C590.679 134.168 591.569 133.786 592.263 133.379L586.368 126.01L586.83 125.393ZM564.757 128.131C562.806 128.302 560.821 128.471 558.844 128.634L561.299 128.48L565.948 137.778L569.258 137.135L564.757 128.131ZM552.567 129.138C551.959 129.186 551.356 129.233 550.761 129.279C550.959 129.485 551 129.77 551 130C551 130.151 550.965 130.388 550.919 130.651C550.871 130.93 550.801 131.283 550.716 131.69C550.546 132.504 550.31 133.546 550.049 134.664C549.589 136.638 549.047 138.859 548.64 140.5H550.097L552.567 129.138ZM549.453 129.379C546.408 129.612 543.582 129.819 541.173 129.989C541.046 130.093 540.85 130.3 540.607 130.662C540.31 131.104 539.963 131.745 539.6 132.628C538.909 134.307 538.167 136.84 537.583 140.5H546.601L549.044 129.748L549.146 129.646C549.233 129.56 549.338 129.466 549.453 129.379ZM547.813 139.68C548.198 138.121 548.669 136.182 549.076 134.436C549.336 133.321 549.569 132.288 549.737 131.485C549.821 131.083 549.888 130.743 549.934 130.48C549.95 130.388 549.963 130.309 549.973 130.244C549.966 130.249 549.96 130.255 549.954 130.26L547.813 139.68ZM345.495 101H257.963C265.165 101.394 274.402 101.587 285.129 101.634C302.245 101.711 323.119 101.419 345.495 101Z" fill="black"/>
</svg>
