<svg width="50" height="17" viewBox="0 0 50 17" fill="none" xmlns="http://www.w3.org/2000/svg">
<path d="M14.5 15.5C15.3333 16.1666 18 17.1 22 15.5C27 13.5 33 14.5 35.5 16H49L36.5 14.5C35 13.3333 30.7 11 25.5 11C20.3 11 17.6667 12 17 12.5C16.1667 11.5 13.6 9.09997 10 7.49997C6.4 5.89997 2.83334 3.16664 1.5 1.99997C0.833335 1.16664 0.200002 -0.200027 3 0.999974C5.8 2.19997 6.83333 4.16666 7 5C8.5 5 11.7 4.5 12.5 2.5C13.3 0.5 11.5 0.666649 10.5 0.999974C9.66667 1.33332 7.6 2.90002 6 6.5C5.16667 6.33333 3.3 6.4 2.5 8C2.5 8.83333 3.1 10.4 5.5 10C7.9 9.6 9.5 10.5 10 11L14.5 15.5Z" stroke="black"/>
</svg>
