<svg width="44" height="20" viewBox="0 0 44 20" fill="none" xmlns="http://www.w3.org/2000/svg">
<path d="M0 18.4387H9M9 18.4387L15 11.9387C13.1667 12.272 9 12.0387 7 8.43872C7.5 7.43872 8.8 5.23872 10 4.43872L10.5 6.93872L11.5 7.93872L12.5 6.93872L11.5 5.93872L11 3.93872L14 0.938721C16.6667 2.10539 22.3 5.33871 23.5 8.93872H34.5C35.1667 7.93872 37 6.33871 39 7.93872C38.1667 7.77205 36.3 7.73872 35.5 8.93872C38.5 10.6054 44.2 14.8387 43 18.4387H37.5L36 19.4387H29.5C29.1667 18.6054 28.2 16.9387 27 16.9387C27.8333 16.272 30.1 15.0387 32.5 15.4387V9.93872H17C17 8.27205 16.3 4.53873 13.5 2.93872C15 3.93872 17.7 7.03873 16.5 11.4387L11.5 16.9387H13.5M9 18.4387H13.5V16.9387M13.5 16.9387H25.5" stroke="black"/>
</svg>
