<svg width="42" height="45" viewBox="0 0 42 45" fill="none" xmlns="http://www.w3.org/2000/svg">
<path d="M11 43.4387L19.5 43.9387L20 35.4387C20.8 37.4387 23 37.2721 24 36.9387V31.4387C25.6667 32.7721 29 36.0387 29 38.4387C29 40.8387 32.3333 43.4387 34 44.4387H40.5C40.5581 43.2179 40.3142 41.8133 39.8333 40.2811M11 43.4387H0.5M11 43.4387L11.5 21.4387C11.819 21.8003 12.1771 22.221 12.5583 22.6865M12.5583 22.6865C15.1642 25.8692 18.849 31.147 18.5 33.9387C18.6667 34.7721 17.8 36.3387 13 35.9387L12.5583 22.6865ZM12.5583 22.6865L12.5 20.9387C9.83333 18.1054 4.7 11.2387 5.5 6.43872V1.43872H15.5V6.43872H6.5C7.60785 6.99265 9.56716 8.42105 9.96872 10.265M9.96872 10.265C10.0504 10.6403 10.0676 11.0329 10 11.4387C9.95443 11.1197 9.93378 10.706 9.96872 10.265ZM9.96872 10.265C10.0616 9.09332 10.5469 7.72934 12 7.43872H15.5C16.6185 8.55719 17.9859 9.98053 19.5085 11.6353M19.5085 11.6353C24.9448 17.5433 32.3599 26.4017 37.4907 34.8704M19.5085 11.6353L17.5 12.4387L14.5 13.9387C11.3 15.9387 13.1667 18.1054 14.5 18.9387C20.8898 22.3216 33.3722 33.9162 39.8333 40.2811M19.5085 11.6353L20 11.4387C24.8701 16.6567 33.0802 26.5215 37.4907 34.8704M37.4907 34.8704C38.8461 37.1075 40.042 39.3175 41 41.4387C40.6381 41.0768 40.2481 40.6897 39.8333 40.2811M37.4907 34.8704C38.4982 36.7776 39.3075 38.6057 39.8333 40.2811" stroke="black"/>
</svg>
