<svg width="36" height="41" viewBox="0 0 36 41" fill="none" xmlns="http://www.w3.org/2000/svg">
<path d="M35.5 39.9387C34 37.4387 31.1 30.8387 31.5 24.4387V10.9387C28.1667 3.43873 19.4 -7.06127 11 10.9387V21.4387H14C15.5 19.7721 19 17.4387 21 21.4387C20.8333 22.9387 19.2 25.2387 14 22.4387H11C11 22.4387 10.8959 22.8092 10.7351 23.3281M10.7351 23.3281C10.5436 23.9462 10.2718 24.7749 10 25.4387C9.5 26.6598 6.5 30.4387 7 34.4387C7.5 38.4387 12 37.4387 13 35.9387C14 34.4387 15.7 29.4387 12.5 25.4387C11.8397 24.6133 11.2531 23.9156 10.7351 23.3281ZM10.7351 23.3281C8.74295 21.0686 7.76454 20.4387 7.5 20.4387C6.33333 20.1054 3.39999 19.6387 1 20.4387" stroke="black"/>
</svg>
